{
  "asset": {
    "version": "2.0",
    "generator": "three.rb animated smoke asset"
  },
  "scene": 0,
  "scenes": [
    {
      "nodes": [0]
    }
  ],
  "nodes": [
    {
      "name": "AnimatedRubyTriangle",
      "mesh": 0,
      "rotation": [0, 0, 0, 1]
    }
  ],
  "meshes": [
    {
      "name": "AnimatedRubyTriangleMesh",
      "primitives": [
        {
          "attributes": {
            "POSITION": 0
          },
          "material": 0
        }
      ]
    }
  ],
  "materials": [
    {
      "name": "AnimatedRubyTriangleMaterial",
      "pbrMetallicRoughness": {
        "baseColorFactor": [0.35, 0.78, 1.0, 1.0],
        "metallicFactor": 0.0,
        "roughnessFactor": 0.45
      },
      "doubleSided": true
    }
  ],
  "animations": [
    {
      "name": "TriangleSpin",
      "channels": [
        {
          "sampler": 0,
          "target": {
            "node": 0,
            "path": "rotation"
          }
        }
      ],
      "samplers": [
        {
          "input": 1,
          "output": 2,
          "interpolation": "LINEAR"
        }
      ]
    }
  ],
  "buffers": [
    {
      "uri": "data:application/octet-stream;base64,",
      "byteLength": 36
    },
    {
      "uri": "data:application/octet-stream;base64,",
      "byteLength": 8
    },
    {
      "uri": "data:application/octet-stream;base64,",
      "byteLength": 32
    }
  ],
  "bufferViews": [
    {
      "buffer": 0,
      "byteOffset": 0,
      "byteLength": 36,
      "target": 34962
    },
    {
      "buffer": 1,
      "byteOffset": 0,
      "byteLength": 8
    },
    {
      "buffer": 2,
      "byteOffset": 0,
      "byteLength": 32
    }
  ],
  "accessors": [
    {
      "bufferView": 0,
      "byteOffset": 0,
      "componentType": 5126,
      "count": 3,
      "type": "VEC3",
      "min": [-1.0, -1.0, 0.0],
      "max": [1.0, 1.0, 0.0]
    },
    {
      "bufferView": 1,
      "byteOffset": 0,
      "componentType": 5126,
      "count": 2,
      "type": "SCALAR",
      "min": [0.0],
      "max": [2.0]
    },
    {
      "bufferView": 2,
      "byteOffset": 0,
      "componentType": 5126,
      "count": 2,
      "type": "VEC4"
    }
  ]
}
